#!OML:ASF H:\Terrain\Patient Classification 1\Walking\liu\liu.ASF
:FULLY-SPECIFIED
:DEGREES
161
root 8.52481 16.654 -11.0685 8.0566 -4.94787 -6.36438
lowerback -3.28389 2.01607 3.82692
upperback -0.737563 2.50523 4.03331
thorax 1.06557 1.25765 2.10728
lowerneck -21.2307 -4.559 -13.2451
upperneck 20.0624 -5.00884 11.9874
head 10.6052 -1.91898 5.79775
rclavicle 9.93923e-017 -3.26007e-014
rhumerus -24.2397 26.5501 -83.8004
rradius 53.2189
rwrist -25.3136
rhand -32.0183 -23.3747
rfingers 7.12502
rthumb -5.26642 -53.2892
lclavicle 9.93923e-017 -3.26007e-014
lhumerus -53.0687 -2.42225 86.9787
lradius 20.3233
lwrist -4.80608
lhand -7.23396 -23.1094
lfingers 7.12502
lthumb 18.6458 6.01698
rfemur 10.7648 3.81789 30.6255
rtibia 4.90464
rfoot -4.28409 8.55308
rtoes -15.4625
lfemur -39.9416 0.436102 -11.4925
ltibia 18.6706
lfoot -14.3271 11.9724
ltoes -13.9054
162
root 8.54102 16.627 -10.8791 8.10417 -5.04627 -6.72412
lowerback -3.33355 2.07839 4.08343
upperback -0.766771 2.57519 4.20597
thorax 1.06593 1.29275 2.14724
lowerneck -21.1161 -4.6039 -13.4282
upperneck 20.0503 -5.0437 12.0581
head 10.592 -1.94455 5.84974
rclavicle 1.93815e-015 -2.3059e-014
rhumerus -23.9748 26.8485 -83.588
rradius 53.3835
rwrist -25.1632
rhand -31.7042 -24.3352
rfingers 7.12502
rthumb -4.96316 -54.2571
lclavicle 1.93815e-015 -2.3059e-014
lhumerus -53.4222 -1.06385 85.7087
lradius 19.7195
lwrist -6.30694
lhand -5.89878 -22.443
lfingers 7.12502
lthumb 19.9297 6.55501
rfemur 13.1096 3.8157 30.826
rtibia 1.43902
rfoot -2.14518 8.38036
rtoes -13.8738
lfemur -40.1212 0.107057 -10.902
ltibia 18.1452
lfoot -14.3007 12.0794
ltoes -11.9176
163
root 8.56183 16.6077 -10.6834 7.99333 -5.19435 -6.9564
lowerback -3.26622 2.17352 4.36922
upperback -0.729842 2.69404 4.23321
thorax 1.07717 1.35276 2.02
lowerneck -20.9878 -4.60448 -13.4974
upperneck 19.972 -5.06094 12.1698
head 10.5477 -1.94823 5.89804
rclavicle -1.62506e-014 -2.8625e-014
rhumerus -23.7474 26.9257 -83.5897
rradius 53.4135
rwrist -24.9605
rhand -31.7643 -24.3947
rfingers 7.12502
rthumb -5.02115 -54.3152
lclavicle -1.62506e-014 -2.8625e-014
lhumerus -53.7035 -0.391119 84.7299
lradius 19.0117
lwrist -7.5726
lhand -5.85394 -22.4391
lfingers 7.12502
lthumb 19.9728 6.5545
rfemur 14.6456 3.82217 30.8723
rtibia 3.18055e-015
rfoot -1.11086 8.45898
rtoes -11.3384
lfemur -40.0174 0.28121 -10.8597
ltibia 17.9111
lfoot -14.2308 11.9864
ltoes -10.6452
164
root 8.5818 16.5868 -10.4873 7.89774 -5.54269 -7.13095
lowerback -3.25997 2.3186 4.58298
upperback -0.605881 2.87244 4.21948
thorax 1.21209 1.44436 1.89862
lowerneck -21.1455 -4.58542 -13.4107
upperneck 20.0687 -5.04759 12.1631
head 10.6075 -1.93211 5.88721
rclavicle -1.1281e-014 5.725e-014
rhumerus -23.3835 27.0328 -83.6213
rradius 53.2344
rwrist -24.8962
rhand -32.1769 -23.489
rfingers 7.12502
rthumb -5.41956 -53.3997
lclavicle -1.1281e-014 5.725e-014
lhumerus -53.6217 0.485312 83.5385
lradius 18.0535
lwrist -9.16095
lhand -6.31714 -23.1091
lfingers 7.12502
lthumb 19.5275 5.93025
rfemur 15.4758 4.00948 30.8794
rtibia 4.77083e-014
rfoot -0.957605 8.63895
rtoes -12.0835
lfemur -39.9077 0.519111 -10.8248
ltibia 17.9841
lfoot -14.2936 12.1665
ltoes -9.86506
165
root 8.59508 16.5597 -10.2914 8.00244 -5.90425 -7.27537
lowerback -3.52437 2.45631 4.51
upperback -0.480992 3.02868 4.32911
thorax 1.47949 1.52548 2.0764
lowerneck -21.4529 -4.62252 -13.4953
upperneck 20.1905 -5.05721 12.2291
head 10.7155 -1.92753 5.93189
rclavicle -4.20927e-014 -3.26007e-014
rhumerus -22.9736 27.1266 -83.4155
rradius 53.1131
rwrist -24.6842
rhand -32.3003 -22.9652
rfingers 7.12502
rthumb -5.53865 -52.8728
lclavicle -4.20927e-014 -3.26007e-014
lhumerus -53.4846 1.50898 82.5375
lradius 17.1492
lwrist -10.4281
lhand -6.51965 -23.4355
lfingers 7.12502
lthumb 19.3328 5.6235
rfemur 16.0763 4.23918 30.8699
rtibia 8.26944e-014
rfoot -0.547735 8.65329
rtoes -12.7326
lfemur -40.121 1.23964 -11.0112
ltibia 18.407
lfoot -14.4148 11.6908
ltoes -10.3807
166
root 8.61209 16.5335 -10.0883 7.97064 -6.0858 -7.16825
lowerback -3.69011 2.49324 4.22803
upperback -0.410675 3.07183 4.37778
thorax 1.6273 1.54735 2.2959
lowerneck -21.3939 -4.61525 -13.529
upperneck 20.0499 -5.03153 12.227
head 10.6503 -1.91929 5.93495
rclavicle -2.48978e-014 -5.32743e-014
rhumerus -22.7542 27.1607 -83.2638
rradius 52.9371
rwrist -24.1936
rhand -32.1026 -23.3169
rfingers 7.12502
rthumb -5.34776 -53.2294
lclavicle -2.48978e-014 -5.32743e-014
lhumerus -53.6143 2.91622 81.1431
lradius 16.4323
lwrist -11.8752
lhand -6.96733 -23.5175
lfingers 7.12502
lthumb 18.9022 5.5841
rfemur 16.8105 4.24958 30.5979
rtibia -4.77083e-014
rfoot -0.137192 8.64002
rtoes -12.3057
lfemur -40.227 1.8999 -11.5924
ltibia 19.0602
lfoot -14.6647 10.8673
ltoes -10.1116
167
root 8.63446 16.5055 -9.87562 7.87577 -6.22846 -7.09087
lowerback -3.82501 2.54206 4.16141
upperback -0.335273 3.12593 4.33111
thorax 1.77929 1.57563 2.29703
lowerneck -21.3001 -4.65307 -13.3439
upperneck 19.898 -5.08333 11.976
head 10.5724 -1.95884 5.79221
rclavicle -8.44835e-016 2.8625e-014
rhumerus -22.6101 26.9879 -83.2194
rradius 52.6492
rwrist -23.5648
rhand -31.7954 -23.5704
rfingers 7.12502
rthumb -5.05118 -53.4902
lclavicle -8.44835e-016 2.8625e-014
lhumerus -53.8033 5.14597 78.5747
lradius 15.7762
lwrist -14.8917
lhand -7.22209 -23.8232
lfingers 7.12502
lthumb 18.6572 5.30211
rfemur 17.6446 4.21855 30.3561
rtibia -3.18055e-015
rfoot 0.210259 8.66028
rtoes -13.2309
lfemur -40.1644 2.41334 -12.1202
ltibia 19.8001
lfoot -15.3412 9.96767
ltoes -5.756
168
root 8.65512 16.4694 -9.66154 7.9987 -6.30477 -6.94618
lowerback -4.20892 2.62184 4.03426
upperback -0.320429 3.21141 4.22955
thorax 2.0078 1.61941 2.28836
lowerneck -21.3585 -4.72928 -13.2081
upperneck 19.8418 -5.1928 11.8526
head 10.5715 -2.01038 5.70234
rclavicle -1.80894e-014 -5.96354e-014
rhumerus -22.5638 26.6159 -83.2578
rradius 52.3938
rwrist -22.9696
rhand -31.456 -23.4677
rfingers 7.12502
rthumb -4.72348 -53.3951
lclavicle -1.80894e-014 -5.96354e-014
lhumerus -53.8518 6.77028 76.4508
lradius 14.9803
lwrist -17.6809
lhand -7.25414 -23.9725
lfingers 7.12502
lthumb 18.6264 5.15576
rfemur 18.2944 4.16048 30.0218
rtibia -1.59028e-014
rfoot 0.693929 8.65359
rtoes -14.9489
lfemur -40.4557 3.29979 -13.028
ltibia 20.8519
lfoot -14.9027 8.93066
ltoes -3.65935
169
root 8.67666 16.4375 -9.45027 8.11756 -6.33311 -6.84412
lowerback -4.42195 2.6837 3.95216
upperback -0.421652 3.29074 4.13368
thorax 2.02288 1.65832 2.24763
lowerneck -21.5116 -4.68958 -13.084
upperneck 20.0644 -5.18879 11.9019
head 10.6782 -1.99015 5.70961
rclavicle -8.94531e-016 -1.51076e-014
rhumerus -22.8041 26.263 -83.4618
rradius 52.1448
rwrist -22.4945
rhand -31.4228 -23.827
rfingers 7.12502
rthumb -4.69142 -53.7551
lclavicle -8.94531e-016 -1.51076e-014
lhumerus -53.988 8.25345 74.4125
lradius 14.0406
lwrist -20.2637
lhand -7.14344 -24.1207
lfingers 7.12502
lthumb 18.7329 4.99728
rfemur 18.9585 4.06668 29.7112
rtibia 2.54444e-014
rfoot 1.31432 8.60313
rtoes -15.6225
lfemur -40.9166 4.17136 -13.9228
ltibia 22.2951
lfoot -11.1883 8.29641
ltoes -9.62072
170
root 8.69928 16.4093 -9.23598 8.18294 -6.43895 -7.10809
lowerback -4.48602 2.7534 4.19799
upperback -0.551335 3.37319 4.16521
thorax 1.93643 1.69962 2.14805
lowerneck -21.4539 -4.62343 -13.1108
upperneck 20.2467 -5.16056 12.1032
head 10.7367 -1.95894 5.80301
rclavicle -4.12975e-014 1.03368e-014
rhumerus -23.204 26.0679 -83.7273
rradius 51.8872
rwrist -22.1901
rhand -31.5298 -24.3039
rfingers 7.12502
rthumb -4.79467 -54.2297
lclavicle -4.12975e-014 1.03368e-014
lhumerus -54.4079 10.5981 71.3872
lradius 13.1935
lwrist -23.63
lhand -7.09871 -24.8149
lfingers 7.12502
lthumb 18.7759 4.29892
rfemur 19.6517 4.07617 29.7923
rtibia 2.54444e-014
rfoot 2.02784 8.46288
rtoes -15.5335
lfemur -41.3932 4.74775 -14.0523
ltibia 23.9258
lfoot -8.47795 8.31766
ltoes -11.5483
